<?xml version="1.0" encoding="UTF-8"?>
<!DOCTYPE svg PUBLIC "-//W3C//DTD SVG 1.1//EN" "http://www.w3.org/Graphics/SVG/1.1/DTD/svg11.dtd">
<svg xmlns="http://www.w3.org/2000/svg" version="1.1" width="382px" height="382px" style="shape-rendering:geometricPrecision; text-rendering:geometricPrecision; image-rendering:optimizeQuality; fill-rule:evenodd; clip-rule:evenodd" xmlns:xlink="http://www.w3.org/1999/xlink">
<g><path fill="#04210d" stroke="#04210d" stroke-width="0.5" d="M 327.74,115.55 c 7.12,13.18 12.38,27.07 15.76,41.66 c 25.91,121.4 -91.65,223.62 -207.96,179.66 c -10.05,-2.62 -23.82,-14.51 -34.12,-10.95 c -19.68,4.8 -39.33,9.7 -58.95,14.71 c -1.37,-0.4 -0.54,-2.07 -0.44,-3.03 c 4.83,-19.2 9.6,-38.41 14.31,-57.64 c 2.72,-9.42 -5.52,-18.72 -8.59,-27.22 c -13.25,-30.23 -16.02,-63.31 -9.25,-95.53 c 3.4,-14.59 8.65,-28.47 15.76,-41.66 c 60.87,-107.39 212.98,-107.34 273.48,0 Z M 123.16,109.64 c -6.33,0.86 -10.42,4.35 -12.27,10.45 c -0.14,0.68 -0.26,1.37 -0.36,2.06 c -0.08,46.77 -0.08,93.54 0.01,140.31 c -0.26,10.62 -1.16,24.01 13.04,24.54 c 45.27,0.21 90.55,0.2 135.83,-0.04 c 8.34,-0.65 11.93,-6.83 11.98,-14.67 c 0.12,-49.99 0.16,-99.99 0.12,-149.98 c -0.11,-0.75 -0.24,-1.49 -0.38,-2.23 c -1.87,-6.07 -5.95,-9.56 -12.24,-10.47 c -0.64,-5.55 -1.12,-10.93 -7.78,-11.9 c -39.47,-0.24 -78.94,-0.28 -118.42,-0.11 c -7.47,-0.4 -9.23,5.93 -9.53,12.04 Z"/></g>
<g><path fill="#ffffff" stroke="#ffffff" stroke-width="0.5" d="M 166.04,149.98 c 3.85,30.64 46,30.67 49.92,0 c 0.12,-10.55 10.56,-14.2 16.79,-5.22 c 0.86,4.44 0.68,8.85 -0.55,13.23 c -2.06,7.6 -5.83,14.25 -11.29,19.93 c -16.56,16.22 -43.27,16.25 -59.82,0 c -5.47,-5.69 -9.23,-12.34 -11.3,-19.95 c -1.16,-4.31 -1.4,-8.66 -0.69,-13.05 c 5.75,-9.11 16.35,-5.98 16.94,5.06 Z"/></g>
<g><path fill="#29ae5b" stroke="#29ae5b" stroke-width="0.5" d="M 155.09,178.17 c 2,-0.1 4,-0.19 6,-0.25 c 16.55,16.25 43.26,16.22 59.82,0 c 1.99,0.09 3.98,0.14 5.98,0.16 c -13.78,27.22 -58.34,26.9 -71.8,0.09 Z"/></g>
<g><path fill="#36b466" d="M 149.79,157.97 c 2.07,7.61 5.83,14.26 11.3,19.95 c -2,0.06 -4,0.15 -6,0.25 c -3.09,-2.14 -8,-19.36 -5.3,-20.2 Z M 232.2,157.99 c 2.81,1.25 -2.67,17.74 -5.31,20.09 c -2,-0.02 -3.99,-0.07 -5.98,-0.16 c 5.46,-5.68 9.23,-12.33 11.29,-19.93 Z"/></g>
<g><path fill="#43e07f" fill-opacity="0.125" d="M 13.05,124.07 c -0.08,0.31 -0.17,0.61 -0.25,0.91 c -0.34,0.08 -0.54,-0.05 -0.61,-0.39 c 0.16,-0.36 0.45,-0.54 0.86,-0.52 Z M 368.95,124.07 c 0.41,-0.07 0.69,0.08 0.85,0.45 c -0.05,0.35 -0.25,0.51 -0.6,0.46 c -0.08,-0.3 -0.17,-0.6 -0.25,-0.91 Z"/></g>
<g><path fill="#3fdf7c" fill-opacity="0.125" d="M 9.03,136.02 c -0.08,0.42 -0.18,0.84 -0.3,1.24 c -0.41,-0.58 -0.31,-0.99 0.3,-1.24 Z M 372.98,136.02 c 0.62,0.25 0.72,0.66 0.29,1.25 c -0.12,-0.41 -0.22,-0.83 -0.29,-1.25 Z"/></g>
<g><path fill="#3bdd78" fill-opacity="0.063" d="M 6.07,147.04 c -0.08,0.33 -0.16,0.66 -0.24,0.99 c -0.89,0.07 -0.78,-1.19 0.24,-0.99 Z M 375.93,147.03 c 0.82,0.09 1.3,0.96 0.24,0.99 c -0.08,-0.33 -0.16,-0.66 -0.24,-0.99 Z"/></g>
<g><path fill="#7af197" fill-opacity="0.125" d="M 120.24,14.63 c -0.39,0.16 -0.78,0.3 -1.19,0.41 c 0.2,-0.61 0.6,-0.75 1.19,-0.41 Z M 261.76,14.64 c 0.64,-0.45 1.04,-0.32 1.18,0.39 c -0.4,-0.1 -0.8,-0.23 -1.18,-0.39 Z"/></g>
<g><path fill="#7df298" fill-opacity="0.125" d="M 137.01,8.81 c -0.33,0.07 -0.66,0.13 -0.99,0.2 c -0.04,-0.94 1.1,-1.02 0.99,-0.2 Z M 245.98,9.01 c -0.33,-0.07 -0.66,-0.14 -0.99,-0.2 c -0.16,-0.83 1,-0.78 0.99,0.2 Z"/></g>
<g><path fill="#26d367" stroke="#26d367" stroke-width="0.5" d="M 258.89,109.61 c -45.24,0.25 -90.49,0.26 -135.73,0.03 c 0.3,-6.11 2.06,-12.44 9.53,-12.04 c 39.48,-0.17 78.95,-0.13 118.42,0.11 c 6.66,0.97 7.14,6.35 7.78,11.9 Z M 4.15,155.99 c 7.44,2.98 25.92,1.65 34.35,1.22 c -6.77,32.22 -4,65.3 9.25,95.53 c 3.07,8.5 11.31,17.8 8.59,27.22 c -4.71,19.23 -9.48,38.44 -14.31,57.64 c -0.1,0.96 -0.93,2.63 0.44,3.03 c 19.62,-5.01 39.27,-9.91 58.95,-14.71 c 10.3,-3.56 24.07,8.33 34.12,10.95 c 116.31,43.96 233.87,-58.26 207.96,-179.66 c 11.74,0.69 22.81,1.13 34.54,-0.23 c 7.65,42.15 0.87,86.12 -19.52,123.82 c -0.23,0.36 -0.43,0.73 -0.6,1.12 c -2.01,3.71 -4.15,7.34 -6.43,10.88 c -0.22,0.34 -0.44,0.69 -0.66,1.04 c -0.43,0.67 -0.87,1.32 -1.33,1.97 c -0.23,0.34 -0.45,0.68 -0.67,1.03 c -0.43,0.67 -0.87,1.32 -1.33,1.97 c -0.23,0.33 -0.47,0.66 -0.7,0.99 c -1.4,2.04 -2.85,4.04 -4.35,6 c -0.23,0.32 -0.47,0.63 -0.7,0.94 c -1.01,1.32 -2.04,2.62 -3.09,3.91 c -0.3,0.37 -0.6,0.74 -0.9,1.11 c -1.37,1.63 -2.74,3.25 -4.13,4.87 c -0.31,0.35 -0.62,0.71 -0.93,1.07 c -0.34,0.34 -0.65,0.7 -0.94,1.08 c -0.36,0.3 -0.68,0.63 -0.97,1 c -3.49,3.86 -7.16,7.53 -11.01,11.01 c -0.36,0.28 -0.7,0.58 -1.02,0.89 c -0.36,0.34 -0.72,0.67 -1.07,1.02 c -0.35,0.31 -0.71,0.62 -1.07,0.93 c -1.61,1.39 -3.23,2.77 -4.86,4.13 c -0.37,0.3 -0.74,0.6 -1.11,0.9 c -1.29,1.05 -2.59,2.08 -3.91,3.09 c -0.31,0.23 -0.62,0.47 -0.94,0.7 c -1.96,1.5 -3.96,2.95 -6,4.35 c -0.33,0.23 -0.66,0.47 -0.99,0.7 c -0.65,0.46 -1.3,0.9 -1.97,1.33 c -0.35,0.22 -0.69,0.44 -1.03,0.67 c -0.65,0.46 -1.3,0.9 -1.97,1.33 c -0.35,0.22 -0.7,0.44 -1.04,0.66 c -3.54,2.28 -7.17,4.42 -10.88,6.43 c -0.39,0.17 -0.76,0.37 -1.12,0.6 c -54.07,29.03 -118.78,30.19 -173.77,2.89 c -2.1,-1.1 -4.29,-1.29 -6.55,-0.56 c -26.3,6.68 -52.62,13.29 -78.97,19.82 c -5.84,1.31 -10.95,-0.07 -15.31,-4.16 c -0.24,-0.23 -0.48,-0.47 -0.71,-0.71 c -4.14,-4.33 -5.52,-9.42 -4.16,-15.28 c 6.52,-26.35 13.13,-52.69 19.82,-79 c 2.13,-5.16 -5.91,-15.6 -7.09,-21.12 c -13.03,-33.09 -16.47,-69.46 -9.91,-104.41 Z"/></g>
<g><path fill="#25d366" fill-opacity="0.063" d="M 342.45,305.8 c 0.16,0.61 -0.08,0.92 -0.7,0.94 c 0.23,-0.31 0.47,-0.62 0.7,-0.94 Z M 338.66,310.65 c 0.05,0.67 -0.25,1.04 -0.9,1.11 c 0.3,-0.37 0.6,-0.74 0.9,-1.11 Z M 333.63,316.63 c 0.22,0.84 -0.09,1.19 -0.93,1.07 c 0.31,-0.36 0.62,-0.72 0.93,-1.07 Z M 332.7,317.7 c 0.03,0.66 -0.29,1.02 -0.94,1.08 c 0.29,-0.38 0.6,-0.74 0.94,-1.08 Z M 318.76,331.68 c -0.03,0.69 -0.39,1.03 -1.07,1.02 c 0.35,-0.35 0.71,-0.68 1.07,-1.02 Z M 317.69,332.7 c 0.09,0.81 -0.27,1.12 -1.07,0.93 c 0.36,-0.31 0.72,-0.62 1.07,-0.93 Z M 311.76,337.76 c -0.07,0.65 -0.44,0.95 -1.11,0.9 c 0.37,-0.3 0.74,-0.6 1.11,-0.9 Z M 306.74,341.75 c -0.02,0.62 -0.33,0.86 -0.94,0.7 c 0.32,-0.23 0.63,-0.47 0.94,-0.7 Z M 5.49,375.8 c 0.23,0.24 0.47,0.48 0.71,0.71 c -0.6,0.13 -0.84,-0.11 -0.71,-0.71 Z"/></g>
<g><path fill="#25d366" fill-opacity="0.125" d="M 358.52,280.8 c 0.15,0.57 -0.06,0.94 -0.6,1.12 c 0.17,-0.39 0.37,-0.76 0.6,-1.12 Z M 351.49,292.8 c 0.15,0.59 -0.07,0.93 -0.66,1.04 c 0.22,-0.35 0.44,-0.7 0.66,-1.04 Z M 349.5,295.81 c 0.14,0.58 -0.08,0.93 -0.67,1.03 c 0.22,-0.35 0.44,-0.69 0.67,-1.03 Z M 347.5,298.81 c 0.13,0.59 -0.1,0.92 -0.7,0.99 c 0.23,-0.33 0.47,-0.66 0.7,-0.99 Z M 331.76,318.78 c 0.08,0.72 -0.25,1.05 -0.97,1 c 0.29,-0.37 0.61,-0.7 0.97,-1 Z M 319.78,330.79 c 0.07,0.78 -0.27,1.08 -1.02,0.89 c 0.32,-0.31 0.66,-0.61 1.02,-0.89 Z M 299.8,346.8 c -0.07,0.6 -0.4,0.83 -0.99,0.7 c 0.33,-0.23 0.66,-0.47 0.99,-0.7 Z M 296.84,348.83 c -0.1,0.59 -0.45,0.81 -1.03,0.67 c 0.34,-0.23 0.68,-0.45 1.03,-0.67 Z M 293.84,350.83 c -0.11,0.59 -0.45,0.81 -1.04,0.66 c 0.34,-0.22 0.69,-0.44 1.04,-0.66 Z M 281.92,357.92 c -0.18,0.54 -0.55,0.75 -1.12,0.6 c 0.36,-0.23 0.73,-0.43 1.12,-0.6 Z"/></g>
<g><path fill="#2cd66b" stroke="#2cd66b" stroke-width="0.5" d="M 110.53,122.15 c 0.1,5.46 0.2,10.92 0.31,16.39 c -0.04,0.65 0.18,1.19 0.68,1.61 c 2.56,0.21 5.13,0.26 7.72,0.15 c 0.45,0.63 0.71,1.35 0.78,2.16 c 0.3,0.55 0.77,0.83 1.4,0.84 c 8.93,0.04 17.85,0.02 26.77,-0.06 c 0.52,0.42 0.82,0.99 0.91,1.68 c -0.71,4.39 -0.47,8.74 0.69,13.05 c -2.7,0.84 2.21,18.06 5.3,20.2 c 13.46,26.81 58.02,27.13 71.8,-0.09 c 2.64,-2.35 8.12,-18.84 5.31,-20.09 c 1.23,-4.38 1.41,-8.79 0.55,-13.23 c 0.09,-0.63 0.4,-1.11 0.92,-1.43 c 8.95,-0.04 17.89,-0.03 26.83,0.03 c 0.67,-0.01 1.19,-0.29 1.54,-0.85 c 0.03,-0.8 0.24,-1.53 0.64,-2.19 c 2.61,-0.02 5.22,-0.1 7.83,-0.24 c 0.49,-0.36 0.71,-0.85 0.66,-1.46 c 0.05,-5.44 0.16,-10.88 0.34,-16.31 c 0.04,49.99 0,99.99 -0.12,149.98 c -0.05,7.84 -3.64,14.02 -11.98,14.67 c -45.28,0.24 -90.56,0.25 -135.83,0.04 c -14.2,-0.53 -13.3,-13.92 -13.04,-24.54 c -0.09,-46.77 -0.09,-93.54 -0.01,-140.31 Z"/></g>
<g><path fill="#58e78a" stroke="#58e78a" stroke-width="0.5" d="M 101.19,23.45 c 0.55,-0.29 1.09,-0.58 1.63,-0.87 c 7.57,0.55 15.15,0.82 22.74,0.82 c -2.52,1.29 -4.97,2.69 -7.34,4.19 c 0.4,0.99 1.51,0.44 2.3,0.65 c 9.31,0.11 18.62,0.07 27.93,-0.13 c 18.4,-1.75 36.67,-5.06 55.25,-3.21 c 19.77,2.48 37.79,4.17 57.82,3.37 c 0.85,-0.19 1.85,0.34 2.2,-0.74 c -0.24,-0.99 -6.27,-3.2 -7.36,-4.09 c 7.61,-0.05 15.22,-0.33 22.81,-0.86 c 0.55,0.29 1.09,0.58 1.64,0.87 c 0.37,0.24 0.75,0.45 1.14,0.65 c 0.22,0.1 0.44,0.2 0.65,0.3 c 0.43,0.29 0.87,0.54 1.33,0.77 c 0.2,0.11 0.39,0.22 0.59,0.32 c 0.43,0.24 0.86,0.49 1.28,0.73 c 1.35,0.78 2.68,1.58 4,2.39 c 0.34,0.2 0.67,0.4 1,0.6 c 0.66,0.43 1.32,0.85 2,1.25 c 0.34,0.25 0.69,0.48 1.05,0.7 c 0.67,0.42 1.32,0.86 1.97,1.32 c 0.34,0.24 0.68,0.46 1.03,0.68 c 0.67,0.42 1.32,0.87 1.97,1.32 c 0.33,0.24 0.66,0.48 0.99,0.72 c 0.66,0.46 1.32,0.93 1.98,1.39 c 0.32,0.21 0.64,0.44 0.95,0.66 c 1.03,0.76 2.05,1.52 3.07,2.28 c 0.31,0.24 0.62,0.48 0.94,0.72 c 1.32,1 2.62,2.03 3.91,3.08 c 0.37,0.3 0.73,0.61 1.1,0.91 c 1.64,1.36 3.26,2.73 4.87,4.13 c 0.35,0.31 0.71,0.62 1.06,0.93 c 0.36,0.35 0.71,0.7 1.06,1.05 c 0.34,0.3 0.68,0.58 1.03,0.86 c 3.86,3.49 7.53,7.16 11.01,11.01 c 0.29,0.38 0.59,0.75 0.89,1.11 c 0.35,0.32 0.68,0.65 1.01,0.98 c 0.31,0.36 0.62,0.72 0.93,1.08 c 1.4,1.6 2.78,3.22 4.13,4.86 c 0.3,0.37 0.61,0.73 0.91,1.1 c 1.04,1.29 2.07,2.6 3.08,3.92 c 0.24,0.31 0.47,0.62 0.71,0.93 c 0.77,1.02 1.53,2.04 2.28,3.07 c 0.23,0.31 0.45,0.63 0.66,0.94 c 0.46,0.67 0.93,1.34 1.39,2 c 0.24,0.33 0.48,0.65 0.71,0.98 c 0.46,0.65 0.9,1.31 1.34,1.98 c 0.21,0.35 0.43,0.69 0.66,1.02 c 0.46,0.65 0.9,1.31 1.34,1.98 c 0.21,0.35 0.43,0.69 0.66,1.02 c 0.41,0.69 0.84,1.37 1.28,2.03 c 0.2,0.33 0.39,0.66 0.59,0.99 c 0.82,1.33 1.62,2.68 2.41,4.03 c 0.13,0.24 0.27,0.49 0.4,0.73 c 0.22,0.39 0.44,0.78 0.66,1.17 c 0.22,0.44 0.46,0.87 0.74,1.28 c 0.11,0.21 0.22,0.43 0.32,0.64 c 0.19,0.4 0.39,0.79 0.6,1.17 c 1.93,3.56 3.73,7.18 5.42,10.86 c 0.09,0.3 0.19,0.6 0.28,0.9 c -0.15,2.84 0.12,2.05 -2.72,1.97 c -11.95,3.19 -23.05,-0.39 -33.73,0.59 c -60.5,-107.34 -212.61,-107.39 -273.48,0 c -7.11,-1.41 -14.43,1.42 -21.69,0.92 c -4.07,0 -10.59,-1.98 -14.23,-1.36 c -1.03,-0.55 -0.05,-1.18 -0.53,-2.12 c 0.09,-0.29 0.18,-0.59 0.27,-0.89 c 1.69,-3.68 3.5,-7.3 5.43,-10.87 c 0.21,-0.38 0.41,-0.77 0.6,-1.17 c 0.11,-0.21 0.21,-0.43 0.32,-0.64 c 0.28,-0.41 0.52,-0.84 0.74,-1.28 c 0.22,-0.39 0.44,-0.78 0.65,-1.17 c 0.14,-0.25 0.28,-0.49 0.41,-0.73 c 0.79,-1.35 1.59,-2.7 2.42,-4.02 c 0.2,-0.33 0.4,-0.65 0.6,-0.98 c 0.44,-0.68 0.88,-1.35 1.32,-2.03 c 0.2,-0.35 0.4,-0.69 0.61,-1.04 c 0.43,-0.67 0.87,-1.33 1.33,-1.98 c 0.23,-0.33 0.45,-0.67 0.66,-1.02 c 0.44,-0.67 0.88,-1.33 1.34,-1.98 c 0.23,-0.33 0.47,-0.65 0.71,-0.98 c 0.46,-0.66 0.93,-1.33 1.39,-2 c 0.21,-0.31 0.43,-0.63 0.66,-0.94 c 0.75,-1.03 1.51,-2.05 2.28,-3.07 c 0.24,-0.31 0.47,-0.62 0.71,-0.93 c 1.01,-1.32 2.03,-2.63 3.08,-3.91 c 0.3,-0.37 0.61,-0.74 0.91,-1.11 c 1.36,-1.64 2.73,-3.26 4.12,-4.87 c 0.31,-0.35 0.62,-0.71 0.92,-1.07 c 0.36,-0.36 0.7,-0.74 1.02,-1.14 c 0.33,-0.28 0.63,-0.6 0.9,-0.95 c 3.48,-3.85 7.15,-7.52 11,-11.01 c 0.38,-0.3 0.7,-0.65 0.97,-1.05 c 0.41,-0.24 0.78,-0.53 1.12,-0.87 c 0.35,-0.31 0.71,-0.62 1.07,-0.93 c 1.62,-1.38 3.24,-2.76 4.87,-4.12 c 0.37,-0.3 0.74,-0.61 1.11,-0.91 c 1.28,-1.05 2.58,-2.07 3.9,-3.08 c 0.32,-0.24 0.63,-0.48 0.94,-0.72 c 1.02,-0.77 2.04,-1.52 3.07,-2.28 c 0.31,-0.22 0.63,-0.45 0.95,-0.66 c 0.66,-0.46 1.32,-0.93 1.98,-1.39 c 0.33,-0.24 0.66,-0.48 0.99,-0.72 c 0.65,-0.45 1.3,-0.9 1.97,-1.32 c 0.35,-0.22 0.69,-0.45 1.03,-0.68 c 0.65,-0.46 1.3,-0.9 1.97,-1.32 c 0.36,-0.22 0.71,-0.45 1.05,-0.7 c 0.68,-0.4 1.35,-0.81 2.02,-1.23 c 0.32,-0.21 0.65,-0.41 0.98,-0.62 c 1.33,-0.81 2.66,-1.61 3.99,-2.39 c 0.43,-0.24 0.86,-0.49 1.29,-0.73 c 0.2,-0.11 0.4,-0.22 0.6,-0.33 c 0.46,-0.22 0.9,-0.47 1.32,-0.75 c 0.22,-0.11 0.43,-0.21 0.65,-0.32 c 0.39,-0.19 0.77,-0.41 1.14,-0.64 Z"/></g>
<g><path fill="#48e384" fill-opacity="0.125" d="M 25.17,98.14 c -0.22,0.44 -0.46,0.87 -0.74,1.28 c -0.14,-0.66 0.11,-1.09 0.74,-1.28 Z M 356.83,98.14 c 0.63,0.19 0.88,0.62 0.74,1.28 c -0.28,-0.41 -0.52,-0.84 -0.74,-1.28 Z M 24.11,100.06 c -0.19,0.4 -0.39,0.79 -0.6,1.17 c -0.29,-0.67 -0.09,-1.06 0.6,-1.17 Z M 357.89,100.06 c 0.74,0.1 0.94,0.49 0.6,1.17 c -0.21,-0.38 -0.41,-0.77 -0.6,-1.17 Z M 18.08,112.1 c -0.09,0.3 -0.18,0.6 -0.27,0.89 c -0.14,0.13 -0.28,0.27 -0.41,0.4 c -0.32,-0.76 -0.09,-1.19 0.68,-1.29 Z M 363.91,112.09 c 0.7,0.14 0.94,0.57 0.7,1.29 c -0.14,-0.13 -0.28,-0.26 -0.42,-0.39 c -0.09,-0.3 -0.19,-0.6 -0.28,-0.9 Z"/></g>
<g><path fill="#4ae384" fill-opacity="0.063" d="M 29.25,91.24 c -0.2,0.33 -0.4,0.65 -0.6,0.98 c -0.19,-0.58 0.01,-0.9 0.6,-0.98 Z M 352.77,91.22 c 0.62,0.07 0.82,0.4 0.59,0.99 c -0.2,-0.33 -0.39,-0.66 -0.59,-0.99 Z M 26.23,96.24 c -0.13,0.24 -0.27,0.48 -0.41,0.73 c -0.29,0.11 -0.46,0.03 -0.51,-0.26 c 0.23,-0.32 0.53,-0.48 0.92,-0.47 Z M 355.77,96.24 c 0.59,-0.03 0.86,0.22 0.82,0.75 c -0.14,-0.01 -0.28,-0.02 -0.42,-0.02 c -0.13,-0.24 -0.27,-0.49 -0.4,-0.73 Z"/></g>
<g><path fill="#4be485" fill-opacity="0.125" d="M 35.22,82.21 c -0.24,0.33 -0.48,0.65 -0.71,0.98 c -0.13,-0.59 0.11,-0.92 0.71,-0.98 Z M 346.78,82.21 c 0.61,0.06 0.85,0.39 0.71,0.98 c -0.23,-0.33 -0.47,-0.65 -0.71,-0.98 Z M 33.17,85.17 c -0.21,0.35 -0.43,0.69 -0.66,1.02 c -0.14,-0.58 0.08,-0.92 0.66,-1.02 Z M 348.83,85.17 c 0.59,0.1 0.81,0.44 0.66,1.02 c -0.23,-0.33 -0.45,-0.67 -0.66,-1.02 Z M 31.18,88.17 c -0.21,0.35 -0.41,0.69 -0.61,1.04 c -0.19,-0.58 0.02,-0.93 0.61,-1.04 Z M 350.83,88.17 c 0.59,0.1 0.81,0.44 0.66,1.02 c -0.23,-0.33 -0.45,-0.67 -0.66,-1.02 Z"/></g>
<g><path fill="#4de486" fill-opacity="0.063" d="M 37.27,79.27 c -0.23,0.31 -0.45,0.63 -0.66,0.94 c -0.16,-0.57 0.06,-0.89 0.66,-0.94 Z M 344.73,79.27 c 0.64,0.02 0.86,0.33 0.66,0.94 c -0.21,-0.31 -0.43,-0.63 -0.66,-0.94 Z"/></g>
<g><path fill="#4fe587" fill-opacity="0.063" d="M 44.25,70.25 c -0.3,0.37 -0.61,0.74 -0.91,1.11 c 0,-0.63 0.3,-1 0.91,-1.11 Z M 337.75,70.25 c 0.66,0.07 0.96,0.43 0.91,1.1 c -0.3,-0.37 -0.61,-0.73 -0.91,-1.1 Z M 40.26,75.27 c -0.24,0.31 -0.47,0.62 -0.71,0.93 c -0.11,-0.57 0.13,-0.88 0.71,-0.93 Z M 341.74,75.27 c 0.63,0.01 0.86,0.32 0.71,0.93 c -0.24,-0.31 -0.47,-0.62 -0.71,-0.93 Z"/></g>
<g><path fill="#53e688" fill-opacity="0.063" d="M 50.31,63.17 c -0.32,0.4 -0.66,0.78 -1.02,1.14 c 0.05,-0.64 0.38,-1.02 1.02,-1.14 Z M 331.68,63.33 c 0.69,-0.03 1.02,0.3 1.01,0.98 c -0.33,-0.33 -0.66,-0.66 -1.01,-0.98 Z M 49.29,64.31 c -0.3,0.36 -0.61,0.72 -0.92,1.07 c -0.22,-0.8 0.09,-1.16 0.92,-1.07 Z M 332.69,64.31 c 0.81,-0.08 1.12,0.28 0.93,1.08 c -0.31,-0.36 -0.62,-0.72 -0.93,-1.08 Z"/></g>
<g><path fill="#54e688" fill-opacity="0.125" d="M 51.21,62.22 c -0.27,0.35 -0.57,0.67 -0.9,0.95 c -0.13,-0.72 0.17,-1.04 0.9,-0.95 Z M 330.79,62.22 c 0.79,-0.03 1.09,0.34 0.89,1.11 c -0.3,-0.36 -0.6,-0.73 -0.89,-1.11 Z"/></g>
<g><path fill="#5be88b" fill-opacity="0.125" d="M 63.18,50.16 c -0.27,0.4 -0.59,0.75 -0.97,1.05 c -0.1,-0.75 0.22,-1.1 0.97,-1.05 Z M 318.75,50.35 c 0.71,-0.13 1.06,0.15 1.03,0.86 c -0.35,-0.28 -0.69,-0.56 -1.03,-0.86 Z"/></g>
<g><path fill="#5ce88b" fill-opacity="0.063" d="M 65.37,48.36 c -0.36,0.31 -0.72,0.62 -1.07,0.93 c -0.05,-0.78 0.31,-1.08 1.07,-0.93 Z M 316.63,48.37 c 0.82,-0.19 1.17,0.12 1.06,0.93 c -0.35,-0.31 -0.71,-0.62 -1.06,-0.93 Z M 64.3,49.29 c -0.34,0.34 -0.71,0.63 -1.12,0.87 c 0.15,-0.57 0.52,-0.86 1.12,-0.87 Z M 317.69,49.3 c 0.69,0.01 1.05,0.36 1.06,1.05 c -0.35,-0.35 -0.7,-0.7 -1.06,-1.05 Z"/></g>
<g><path fill="#60ea8d" fill-opacity="0.063" d="M 71.35,43.33 c -0.37,0.3 -0.74,0.61 -1.11,0.91 c 0.12,-0.6 0.49,-0.91 1.11,-0.91 Z M 310.66,43.33 c 0.66,-0.05 1.03,0.26 1.1,0.91 c -0.37,-0.3 -0.73,-0.61 -1.1,-0.91 Z"/></g>
<g><path fill="#64eb8f" fill-opacity="0.063" d="M 80.21,36.59 c -0.32,0.21 -0.64,0.44 -0.95,0.66 c 0.06,-0.58 0.38,-0.8 0.95,-0.66 Z M 301.79,36.59 c 0.61,-0.19 0.92,0.03 0.95,0.66 c -0.31,-0.22 -0.63,-0.45 -0.95,-0.66 Z M 76.19,39.53 c -0.31,0.24 -0.62,0.48 -0.94,0.72 c 0.06,-0.58 0.38,-0.82 0.94,-0.72 Z M 305.81,39.53 c 0.6,-0.14 0.91,0.1 0.94,0.72 c -0.32,-0.24 -0.63,-0.48 -0.94,-0.72 Z"/></g>
<g><path fill="#67ec8f" fill-opacity="0.125" d="M 83.18,34.48 c -0.33,0.24 -0.66,0.48 -0.99,0.72 c 0.08,-0.59 0.41,-0.83 0.99,-0.72 Z M 298.82,34.48 c 0.59,-0.12 0.92,0.12 0.99,0.72 c -0.33,-0.24 -0.66,-0.48 -0.99,-0.72 Z"/></g>
<g><path fill="#69ed91" fill-opacity="0.125" d="M 89.2,30.46 c -0.34,0.25 -0.69,0.48 -1.05,0.7 c 0.12,-0.58 0.47,-0.81 1.05,-0.7 Z M 292.8,30.46 c 0.59,-0.12 0.94,0.11 1.05,0.7 c -0.36,-0.22 -0.71,-0.45 -1.05,-0.7 Z M 86.18,32.48 c -0.34,0.23 -0.68,0.46 -1.03,0.68 c 0.11,-0.58 0.46,-0.8 1.03,-0.68 Z M 295.82,32.48 c 0.58,-0.13 0.92,0.1 1.03,0.68 c -0.35,-0.22 -0.69,-0.44 -1.03,-0.68 Z"/></g>
<g><path fill="#6ced91" fill-opacity="0.063" d="M 92.2,28.61 c -0.33,0.21 -0.66,0.41 -0.98,0.62 c 0.09,-0.58 0.42,-0.79 0.98,-0.62 Z M 289.8,28.61 c 0.59,-0.21 0.92,-0.01 1,0.6 c -0.33,-0.2 -0.66,-0.4 -1,-0.6 Z"/></g>
<g><path fill="#6fee93" fill-opacity="0.063" d="M 97.48,25.49 c -0.43,0.24 -0.86,0.49 -1.29,0.73 c 0.2,-0.63 0.63,-0.87 1.29,-0.73 Z M 284.52,25.49 c 0.69,-0.18 1.11,0.06 1.28,0.73 c -0.42,-0.24 -0.85,-0.49 -1.28,-0.73 Z"/></g>
<g><path fill="#71ee93" fill-opacity="0.125" d="M 101.19,23.45 c -0.37,0.23 -0.75,0.45 -1.14,0.64 c 0.09,-0.71 0.47,-0.92 1.14,-0.64 Z M 280.81,23.45 c 0.65,-0.22 1.03,-0.01 1.14,0.65 c -0.39,-0.2 -0.77,-0.41 -1.14,-0.65 Z M 99.4,24.41 c -0.42,0.28 -0.86,0.53 -1.32,0.75 c 0.11,-0.78 0.55,-1.03 1.32,-0.75 Z M 282.6,24.4 c 0.75,-0.23 1.19,0.03 1.33,0.77 c -0.46,-0.23 -0.9,-0.48 -1.33,-0.77 Z"/></g>
<g><path fill="#77f096" fill-opacity="0.125" d="M 113.24,17.61 c -0.38,0.16 -0.76,0.31 -1.15,0.47 c 0.13,-0.68 0.51,-0.83 1.15,-0.47 Z M 268.75,17.61 c 0.63,-0.33 1.01,-0.17 1.16,0.47 c -0.39,-0.16 -0.77,-0.32 -1.16,-0.47 Z"/></g>
<g><path fill="#5fe98c" stroke="#5fe98c" stroke-width="0.5" d="M 110.89,120.09 c 5.93,-0.06 10.67,3.71 16.66,3.98 c 41.98,0.17 83.95,0.19 125.93,0.05 c 6.42,0.02 11.28,-4.01 17.65,-4.04 c 0.14,0.74 0.27,1.48 0.38,2.23 c -0.18,5.43 -0.29,10.87 -0.34,16.31 c 0.05,0.61 -0.17,1.1 -0.66,1.46 c -2.61,0.14 -5.22,0.22 -7.83,0.24 c -0.4,0.66 -0.61,1.39 -0.64,2.19 c -0.35,0.56 -0.87,0.84 -1.54,0.85 c -8.94,-0.06 -17.88,-0.07 -26.83,-0.03 c -0.52,0.32 -0.83,0.8 -0.92,1.43 c -6.23,-8.98 -16.67,-5.33 -16.79,5.22 c -16.64,-0.33 -33.28,-0.33 -49.92,0 c -0.59,-11.04 -11.19,-14.17 -16.94,-5.06 c -0.09,-0.69 -0.39,-1.26 -0.91,-1.68 c -8.92,0.08 -17.84,0.1 -26.77,0.06 c -0.63,-0.01 -1.1,-0.29 -1.4,-0.84 c -0.07,-0.81 -0.33,-1.53 -0.78,-2.16 c -2.59,0.11 -5.16,0.06 -7.72,-0.15 c -0.5,-0.42 -0.72,-0.96 -0.68,-1.61 c -0.11,-5.47 -0.21,-10.93 -0.31,-16.39 c 0.1,-0.69 0.22,-1.38 0.36,-2.06 Z"/></g>
<g><path fill="#49e383" stroke="#49e383" stroke-width="0.5" d="M 166.04,149.98 c 16.64,-0.33 33.28,-0.33 49.92,0 c -3.92,30.67 -46.07,30.64 -49.92,0 Z"/></g>
<g><path fill="#7af197" stroke="#7af197" stroke-width="0.5" d="M 244.99,8.81 c 0.33,0.06 0.66,0.13 0.99,0.2 c 5.36,1.61 10.62,3.48 15.78,5.63 c 0.38,0.16 0.78,0.29 1.18,0.39 c 1.99,0.74 3.93,1.6 5.81,2.58 c 0.39,0.15 0.77,0.31 1.16,0.47 c 3.11,1.44 6.2,2.94 9.26,4.5 c -7.59,0.53 -15.2,0.81 -22.81,0.86 c 1.09,0.89 7.12,3.1 7.36,4.09 c -0.35,1.08 -1.35,0.55 -2.2,0.74 c -20.03,0.8 -38.05,-0.89 -57.82,-3.37 c -18.58,-1.85 -36.85,1.46 -55.25,3.21 c -9.31,0.2 -18.62,0.24 -27.93,0.13 c -0.79,-0.21 -1.9,0.34 -2.3,-0.65 c 2.37,-1.5 4.82,-2.9 7.34,-4.19 c -7.59,0 -15.17,-0.27 -22.74,-0.82 c 3.07,-1.56 6.16,-3.06 9.27,-4.5 c 0.39,-0.16 0.77,-0.31 1.15,-0.47 c 1.89,-0.97 3.83,-1.83 5.81,-2.57 c 0.41,-0.11 0.8,-0.25 1.19,-0.41 c 5.16,-2.14 10.42,-4.01 15.78,-5.62 c 0.33,-0.07 0.66,-0.13 0.99,-0.2 c 35.01,-10.69 72.95,-10.41 107.98,0 Z M 123.16,109.64 c 45.24,0.23 90.49,0.22 135.73,-0.03 c 6.29,0.91 10.37,4.4 12.24,10.47 c -6.37,0.03 -11.23,4.06 -17.65,4.04 c -41.98,0.14 -83.95,0.12 -125.93,-0.05 c -5.99,-0.27 -10.73,-4.04 -16.66,-3.98 c 1.85,-6.1 5.94,-9.59 12.27,-10.45 Z"/></g>
<g><path fill="#3fdf7c" stroke="#3fdf7c" stroke-width="0.5" d="M 17.4,113.39 c 0.13,-0.13 0.27,-0.27 0.41,-0.4 c 0.48,0.94 -0.5,1.57 0.53,2.12 c 3.64,-0.62 10.16,1.36 14.23,1.36 c 7.26,0.5 14.58,-2.33 21.69,-0.92 c -7.11,13.19 -12.36,27.07 -15.76,41.66 c -8.43,0.43 -26.91,1.76 -34.35,-1.22 c 0.49,-2.67 1.05,-5.32 1.68,-7.96 c 0.08,-0.33 0.16,-0.66 0.24,-0.99 c 0.73,-3.3 1.62,-6.56 2.66,-9.78 c 0.12,-0.4 0.22,-0.82 0.3,-1.24 c 1.13,-3.72 2.38,-7.4 3.77,-11.04 c 0.08,-0.3 0.17,-0.6 0.25,-0.91 c 0.45,-1.31 0.98,-2.59 1.58,-3.83 c 0.16,-0.39 0.29,-0.79 0.4,-1.19 c 0.49,-1.29 1.04,-2.56 1.65,-3.8 c 0.16,-0.39 0.31,-0.79 0.44,-1.19 c 0.09,-0.22 0.18,-0.45 0.28,-0.67 Z M 364.19,112.99 c 0.14,0.13 0.28,0.26 0.42,0.39 c 0.09,0.23 0.17,0.46 0.26,0.69 c 0.14,0.4 0.28,0.79 0.45,1.17 c 0.63,1.23 1.19,2.5 1.65,3.81 c 0.11,0.4 0.24,0.8 0.4,1.19 c 0.61,1.24 1.13,2.52 1.58,3.83 c 0.08,0.31 0.17,0.61 0.25,0.91 c 1.39,3.64 2.64,7.32 3.78,11.04 c 0.07,0.42 0.17,0.84 0.29,1.25 c 1.04,3.21 1.93,6.47 2.66,9.76 c 0.08,0.33 0.16,0.66 0.24,0.99 c 0.71,2.97 1.33,5.95 1.87,8.96 c -11.73,1.36 -22.8,0.92 -34.54,0.23 c -3.38,-14.59 -8.64,-28.48 -15.76,-41.66 c 10.68,-0.98 21.78,2.6 33.73,-0.59 c 2.84,0.08 2.57,0.87 2.72,-1.97 Z"/></g>
<g><path fill="#45e181" fill-opacity="0.125" d="M 15.03,119.05 c -0.11,0.4 -0.24,0.8 -0.4,1.19 c -0.4,-0.63 -0.26,-1.03 0.4,-1.19 Z M 366.97,119.05 c 0.71,0.16 0.84,0.55 0.4,1.19 c -0.16,-0.39 -0.29,-0.79 -0.4,-1.19 Z"/></g>
<g><path fill="#47e282" fill-opacity="0.063" d="M 17.12,114.06 c -0.13,0.4 -0.28,0.8 -0.44,1.19 c -0.41,-0.64 -0.26,-1.03 0.44,-1.19 Z M 364.87,114.07 c 0.76,0.12 0.91,0.51 0.45,1.17 c -0.17,-0.38 -0.31,-0.77 -0.45,-1.17 Z"/></g>
</svg>
